<svg id="Capa_1" enable-background="new 0 0 512 512" height="512" viewBox="0 0 512 512" width="512" xmlns="http://www.w3.org/2000/svg"><g><g><path d="m445.329 376.202v-19.772h12.701c15.279 0 27.71-12.426 27.71-27.7v-38.7c0-19.979-12.603-38.042-31.358-44.948l-175.322-64.561c-7.612-2.801-14.42-7.298-19.961-13.073 3.63-.524 6.422-3.639 6.422-7.414v-30.305c0-4.142-3.357-7.5-7.5-7.5h-5.631v-14.8h5.631c4.143 0 7.5-3.358 7.5-7.5v-30.304c0-4.142-3.357-7.5-7.5-7.5h-5.631v-14.215c0-5.873-3.269-10.994-8.08-13.648v-6.562c0-15.274-12.431-27.7-27.71-27.7h-140.41c-15.274 0-27.7 12.426-27.7 27.7v154.97c0 7.559-.881 15.112-2.621 22.461-1.727 7.333-4.317 14.486-7.696 21.253-7.794 15.577-11.913 33.014-11.913 50.426v41.82c0 20.843 16.962 37.8 37.811 37.8h2.601v19.771c-34.041 3.747-60.612 32.668-60.612 67.689 0 37.556 30.554 68.11 68.11 68.11 26.391 0 49.307-15.097 60.61-37.1 11.303 22.002 34.219 37.1 60.609 37.1 26.391 0 49.307-15.098 60.61-37.1 11.303 22.002 34.219 37.1 60.61 37.1 26.39 0 49.306-15.097 60.609-37.1 11.303 22.002 34.219 37.1 60.61 37.1 37.557 0 68.11-30.554 68.11-68.11.002-35.021-26.569-63.942-60.609-67.688zm-58.87-111.509 9.042-25.309 14.361 5.288-8.989 25.169c-.688 1.925-2.084 3.467-3.932 4.342-1.847.875-3.924.979-5.853.29-3.971-1.42-6.048-5.807-4.629-9.78zm-60.881-21.749 9.254-25.9 14.359 5.288-9.202 25.761c-.688 1.925-2.084 3.468-3.932 4.342-1.848.875-3.924.978-5.852.289-3.97-1.419-6.046-5.807-4.627-9.78zm-37.056-42.953-9.415 26.35c-1.421 3.972-5.808 6.05-9.78 4.631-3.974-1.419-6.052-5.807-4.633-9.78l9.462-26.491zm-99.774-62.762h61.772v15.305h-61.772zm0-60.104h61.772v15.305h-61.772zm-112.558-62.125h140.41c7.008 0 12.71 5.697 12.71 12.7v4.63h-32.846c-4.143 0-7.5 3.358-7.5 7.5s3.357 7.5 7.5 7.5h40.346c.325 0 .58.255.58.58v14.215h-86.446c-4.143 0-7.5 3.358-7.5 7.5v30.305c0 4.142 3.357 7.5 7.5 7.5h86.446v14.8h-86.446c-4.143 0-7.5 3.358-7.5 7.5v30.305c0 4.114 3.313 7.45 7.416 7.496l-17.932 50.811c-2.505 7.092-7.068 13.131-13.198 17.464-6.138 4.34-13.352 6.634-20.859 6.634-9.543 0-18.435-3.66-25.036-10.305-6.736-6.782-10.411-15.931-10.346-25.813l.001-108.492h15.28c17.319 0 33.337-9.385 41.805-24.496l5.141-9.182c5.806-10.376 16.805-16.822 28.705-16.822h7.009c4.143 0 7.5-3.358 7.5-7.5s-3.357-7.5-7.5-7.5h-7.009c-17.325 0-33.34 9.387-41.794 24.496l-5.139 9.177c-5.816 10.379-16.821 16.827-28.718 16.827h-15.28v-55.13c0-7.003 5.698-12.7 12.7-12.7zm82.253 77.43v-15.305h15.305v15.305zm0 60.105v-15.305h15.305v15.305zm-49.407 203.895c4.143 0 7.5-3.358 7.5-7.5s-3.357-7.5-7.5-7.5h-44.966c-12.578 0-22.811-10.228-22.811-22.8v-41.82c0-15.094 3.571-30.21 10.33-43.719.674-1.35 1.311-2.718 1.93-4.094 2.414 5.032 5.654 9.664 9.672 13.709 9.438 9.501 22.109 14.734 35.678 14.734 10.627 0 20.834-3.246 29.519-9.386 8.679-6.135 15.139-14.682 18.684-24.718l19.692-55.801h73.388c5.306 8.24 12.295 15.21 20.47 20.46l-10.055 28.152c-4.2 11.762 1.951 24.75 13.714 28.951 2.51.896 5.073 1.321 7.597 1.321 9.305 0 18.048-5.78 21.354-15.032l9.366-26.213 18.158 6.687-9.303 26.037c-4.202 11.76 1.945 24.748 13.705 28.951 2.492.891 5.07 1.334 7.641 1.334 3.307 0 6.601-.734 9.678-2.191 5.47-2.589 9.604-7.154 11.639-12.854l9.152-25.624 18.157 6.686-9.091 25.446c-4.201 11.76 1.948 24.748 13.707 28.951 2.492.891 5.07 1.334 7.641 1.334 3.307 0 6.601-.734 9.678-2.19 5.47-2.59 9.604-7.155 11.639-12.854l8.941-25.032 25.26 9.302c12.884 4.744 21.541 17.15 21.541 30.872v38.7c0 7.003-5.702 12.7-12.71 12.7h-44.494c-4.143 0-7.5 3.358-7.5 7.5s3.357 7.5 7.5 7.5h16.793v20.868c-3.684 1.574-6.807 4.314-8.91 7.956-3.425 5.933-3.425 13.016 0 18.949l11.578 20.052c2.023 3.506 5.326 6.26 9.302 7.755 4.925 1.85 8.233 6.625 8.233 11.88 0 4.406-2.234 8.436-5.976 10.779-2.282 1.429-7.052 3.368-13.358.307-1.483-.72-2.765-1.911-3.704-3.441-2.031-3.309-2.759-6.627-2.165-9.861.735-3.996-.01-8.188-2.098-11.802-.305-.528-.673-1.017-1.096-1.455l-23.106-23.96c-5.192-5.385-12.461-8.473-19.94-8.473h-3.721c-7.495 0-14.773 3.099-19.97 8.502l-23.232 24.162c-.421.437-.786.924-1.09 1.449-1.982 3.435-2.676 7.572-1.952 11.656.126.708.189 1.427.189 2.137 0 4.406-2.234 8.436-5.976 10.779-2.283 1.429-7.053 3.368-13.359.307-1.483-.72-2.765-1.911-3.704-3.441-2.031-3.309-2.759-6.627-2.165-9.861.735-3.995-.009-8.185-2.095-11.8-.306-.529-.674-1.019-1.098-1.458l-23.106-23.96c-5.192-5.385-12.461-8.473-19.941-8.473h-3.721c-7.495 0-14.773 3.099-19.97 8.502l-23.232 24.162c-.421.437-.786.924-1.09 1.449-1.982 3.436-2.676 7.575-1.953 11.65.127.712.19 1.433.19 2.143 0 4.406-2.234 8.436-5.976 10.779-2.282 1.429-7.053 3.368-13.359.307-1.483-.72-2.765-1.911-3.704-3.441-2.031-3.309-2.759-6.627-2.165-9.861.735-3.995-.009-8.185-2.095-11.8-.306-.529-.674-1.019-1.098-1.458l-23.106-23.96c-5.192-5.385-12.461-8.473-19.941-8.473h-3.721c-7.495 0-14.773 3.099-19.97 8.502l-23.232 24.162c-.421.437-.786.924-1.09 1.449-1.982 3.436-2.676 7.575-1.952 11.65.126.712.189 1.433.189 2.143 0 4.5-2.307 8.573-6.169 10.897-2.371 1.425-7.313 3.305-13.771-.12-1.523-.808-2.813-2.126-3.633-3.714-2.591-5.019-1.968-9.094-.988-11.629 1.309-3.386 4.013-6.056 7.42-7.327 3.945-1.471 7.225-4.198 9.235-7.68l11.613-20.114c3.425-5.933 3.425-13.016 0-18.949-2.104-3.642-5.227-6.383-8.91-7.956v-20.865zm-34.866 140.57c-29.285 0-53.11-23.825-53.11-53.11 0-29.283 23.822-53.107 53.104-53.11h.007c2.058 0 3.077 1.381 3.42 1.975s1.028 2.167 0 3.948l-11.613 20.114c-.366.634-1.088.978-1.485 1.125-7.424 2.768-13.318 8.591-16.172 15.977-2.952 7.642-2.365 16.136 1.652 23.916 2.24 4.34 5.676 7.827 9.935 10.085 4.652 2.467 9.524 3.698 14.305 3.698 4.96 0 9.82-1.328 14.227-3.978 8.287-4.986 13.436-14.087 13.436-23.75 0-1.584-.142-3.185-.42-4.761-.043-.243-.086-.636-.01-1.026l19.193-19.96c4.36 7.824 6.643 16.588 6.643 25.748-.002 29.284-23.827 53.109-53.112 53.109zm121.22 0c-29.284 0-53.109-23.825-53.109-53.11 0-9.168 2.287-17.937 6.653-25.766l19.126 19.833c.106.346.135.693.078 1.004-1.267 6.89.162 13.951 4.133 20.42 2.439 3.974 5.875 7.117 9.938 9.09 9.354 4.54 19.515 4.144 27.87-1.089 8.149-5.104 13.015-13.885 13.015-23.492 0-1.584-.141-3.185-.42-4.761-.043-.243-.086-.636-.009-1.026l19.192-19.96c4.36 7.824 6.643 16.587 6.643 25.748 0 29.284-23.825 53.109-53.11 53.109zm121.22 0c-29.285 0-53.11-23.825-53.11-53.11 0-9.168 2.287-17.937 6.653-25.766l19.126 19.833c.106.346.135.693.078 1.004-1.267 6.89.162 13.951 4.133 20.42 2.439 3.974 5.875 7.117 9.938 9.09 9.355 4.54 19.515 4.144 27.87-1.089 8.149-5.104 13.015-13.885 13.015-23.492 0-1.588-.142-3.191-.421-4.758-.043-.244-.085-.638-.009-1.029l19.193-19.96c4.36 7.824 6.643 16.587 6.643 25.748.001 29.284-23.824 53.109-53.109 53.109zm121.22 0c-29.285 0-53.11-23.825-53.11-53.11 0-9.167 2.286-17.936 6.653-25.765l19.126 19.833c.106.346.135.693.077 1.003-1.266 6.89.163 13.951 4.134 20.42 2.439 3.974 5.875 7.117 9.938 9.09 9.355 4.54 19.514 4.143 27.869-1.088 8.149-5.104 13.015-13.886 13.015-23.492 0-11.469-7.217-21.886-17.956-25.921-.424-.16-1.194-.529-1.589-1.213l-11.578-20.053c-1.028-1.782-.343-3.354 0-3.948s1.362-1.975 3.42-1.975h.007c29.282.003 53.104 23.827 53.104 53.11 0 29.284-23.825 53.109-53.11 53.109z"/><path d="m144.052 356.43h24.938l.73 3.798c2.505 13.021 13.946 22.471 27.205 22.471h118.148c13.259 0 24.7-9.451 27.205-22.472l.73-3.797h35.5c4.143 0 7.5-3.358 7.5-7.5s-3.357-7.5-7.5-7.5h-61.12c-4.131 0-8.277-.348-12.319-1.033l-68.619-11.7c-10.589-1.807-21.49.93-29.964 7.507-.091.066-.181.134-.27.204-4.096 3.239-9.237 5.023-14.478 5.023h-47.688c-4.143 0-7.5 3.358-7.5 7.5s3.359 7.499 7.502 7.499zm71.213-8.055c.09-.064.178-.131.265-.2 5.181-4.091 11.885-5.8 18.4-4.692l68.626 11.702c4.875.827 9.865 1.246 14.834 1.246h10.344l-.185.964c-1.148 5.971-6.395 10.305-12.475 10.305h-118.148c-6.08 0-11.326-4.334-12.475-10.305l-.186-.964h7.475c8.493-.001 16.834-2.859 23.525-8.056z"/><path d="m100.435 278.805c-4.143 0-7.5 3.358-7.5 7.5v10.102c0 4.142 3.357 7.5 7.5 7.5s7.5-3.358 7.5-7.5v-10.102c0-4.142-3.358-7.5-7.5-7.5z"/><path d="m127.709 303.907c4.143 0 7.5-3.358 7.5-7.5v-10.102c0-4.142-3.357-7.5-7.5-7.5s-7.5 3.358-7.5 7.5v10.102c0 4.142 3.357 7.5 7.5 7.5z"/><path d="m154.983 303.907c4.143 0 7.5-3.358 7.5-7.5v-10.102c0-4.142-3.357-7.5-7.5-7.5s-7.5 3.358-7.5 7.5v10.102c0 4.142 3.358 7.5 7.5 7.5z"/><path d="m98.92 180.819c-12.49 0-22.652 10.162-22.652 22.652s10.162 22.652 22.652 22.652 22.652-10.162 22.652-22.652-10.162-22.652-22.652-22.652zm0 30.305c-4.22 0-7.652-3.433-7.652-7.652s3.433-7.652 7.652-7.652 7.652 3.433 7.652 7.652-3.432 7.652-7.652 7.652z"/></g></g></svg>